<svg width="1522" height="3632" viewBox="0 0 1522 3632" fill="none" xmlns="http://www.w3.org/2000/svg">
<g filter="url(#filter0_d_156_20)">
<path d="M85 2889.76V1385.68C85 1289.41 207.697 1248.74 265.201 1325.95L285.449 1353.14C337.767 1423.39 448.711 1397.2 464.095 1310.97L604.99 521.295C624.401 412.503 779.905 410.935 801.507 519.313L1058.07 1806.52C1074.79 1890.41 1185.75 1910.2 1230.44 1837.26C1280.68 1755.27 1407.05 1792.65 1404.6 1888.77L1379 2897L1370 2965L1352 3065L1329.5 3146.5L1306.25 3200.18C1303.43 3206.71 1299.91 3212.91 1295.77 3218.7L1259 3270L1222.77 3317.73C1218.6 3323.23 1213.87 3328.28 1208.66 3332.8L1163.5 3372L1105 3416L1053.48 3451.8C1048.5 3455.26 1043.22 3458.26 1037.7 3460.76L976.5 3488.5L928.301 3507.7C921.124 3510.56 913.641 3512.57 906.001 3513.71L850.811 3521.91C845.944 3522.64 841.029 3523 836.108 3523H766H698L608.248 3513.03C602.096 3512.34 596.021 3511.09 590.101 3509.28L522 3488.5L436.148 3449.84C429.734 3446.96 423.643 3443.4 417.975 3439.23L351 3390L280.094 3332.56C274.713 3328.2 269.799 3323.29 265.431 3317.92L226.5 3270L162 3167L135 3107.5L110.5 3030L96.5 2976L86.043 2904.16C85.3486 2899.39 85 2894.58 85 2889.76Z" fill="url(#paint0_linear_156_20)"/>
<path d="M85 2889.76V1385.68C85 1289.41 207.697 1248.74 265.201 1325.95L285.449 1353.14C337.767 1423.39 448.711 1397.2 464.095 1310.97L604.99 521.295C624.401 412.503 779.905 410.935 801.507 519.313L1058.07 1806.52C1074.79 1890.41 1185.75 1910.2 1230.44 1837.26C1280.68 1755.27 1407.05 1792.65 1404.6 1888.77L1379 2897L1370 2965L1352 3065L1329.5 3146.5L1306.25 3200.18C1303.43 3206.71 1299.91 3212.91 1295.77 3218.7L1259 3270L1222.77 3317.73C1218.6 3323.23 1213.87 3328.28 1208.66 3332.8L1163.5 3372L1105 3416L1053.48 3451.8C1048.5 3455.26 1043.22 3458.26 1037.7 3460.76L976.5 3488.5L928.301 3507.7C921.124 3510.56 913.641 3512.57 906.001 3513.71L850.811 3521.91C845.944 3522.64 841.029 3523 836.108 3523H766H698L608.248 3513.03C602.096 3512.34 596.021 3511.09 590.101 3509.28L522 3488.5L436.148 3449.84C429.734 3446.96 423.643 3443.4 417.975 3439.23L351 3390L280.094 3332.56C274.713 3328.2 269.799 3323.29 265.431 3317.92L226.5 3270L162 3167L135 3107.5L110.5 3030L96.5 2976L86.043 2904.16C85.3486 2899.39 85 2894.58 85 2889.76Z" stroke="black"/>
</g>
<ellipse cx="750" cy="2871" rx="435" ry="445" fill="#D9D9D9"/>
<ellipse cx="889" cy="2736.5" rx="140" ry="134.5" fill="black"/>
<ellipse cx="728" cy="3024" rx="75" ry="79" fill="black"/>
<ellipse cx="547" cy="2764.5" rx="106" ry="106.5" fill="black"/>
<defs>
<filter id="filter0_d_156_20" x="0.5" y="346.36" width="1520.64" height="3285.14" filterUnits="userSpaceOnUse" color-interpolation-filters="sRGB">
<feFlood flood-opacity="0" result="BackgroundImageFix"/>
<feColorMatrix in="SourceAlpha" type="matrix" values="0 0 0 0 0 0 0 0 0 0 0 0 0 0 0 0 0 0 127 0" result="hardAlpha"/>
<feOffset dx="16" dy="8"/>
<feGaussianBlur stdDeviation="50"/>
<feComposite in2="hardAlpha" operator="out"/>
<feColorMatrix type="matrix" values="0 0 0 0 1 0 0 0 0 1 0 0 0 0 1 0 0 0 0.26 0"/>
<feBlend mode="normal" in2="BackgroundImageFix" result="effect1_dropShadow_156_20"/>
<feBlend mode="normal" in="SourceGraphic" in2="effect1_dropShadow_156_20" result="shape"/>
</filter>
<linearGradient id="paint0_linear_156_20" x1="749.25" y1="360" x2="749.25" y2="3523" gradientUnits="userSpaceOnUse">
<stop stop-color="#000B27"/>
<stop offset="0.665" stop-color="#2450A5"/>
<stop offset="1" stop-color="#6AACDE"/>
</linearGradient>
</defs>
</svg>
