<svg width="350" height="358" viewBox="0 0 878 886" fill="none" xmlns="http://www.w3.org/2000/svg">
<g filter="url(#filter0_dd_56_2)">
<path d="M515 562.5L13.5 876L397.5 572L9 437.5L532 149.5L463 172L723 44H687.5L782 11L796.353 6.44911C800.443 5.15223 804.64 4.21848 808.894 3.65872L813.208 3.09109C818.695 2.36913 824.265 2.60108 829.673 3.7767C831.888 4.2583 834.067 4.89617 836.192 5.68553L842.345 7.97103C847.729 9.97062 852.664 13.0146 856.867 16.9278C862.204 21.8965 866.208 28.1247 868.514 35.0421L869.059 36.6776C870.676 41.5275 871.5 46.6063 871.5 51.7185C871.5 59.4559 869.612 67.0765 866.001 73.9193L865.28 75.2848C863.103 79.4107 860.398 83.2359 857.233 86.664L853 91.25L849.483 95.0598C845.834 99.0135 841.871 102.666 837.634 105.982L832.5 110L821.5 117.5L813.75 122.5L806 127L656 207.5L691 181.5L176.5 432.5L515 562.5Z" fill="url(#paint0_linear_56_2)"/>
<path d="M515 562.5L13.5 876L397.5 572L9 437.5L532 149.5L463 172L723 44H687.5L782 11L796.353 6.44911C800.443 5.15223 804.64 4.21848 808.894 3.65872L813.208 3.09109C818.695 2.36913 824.265 2.60108 829.673 3.7767C831.888 4.2583 834.067 4.89617 836.192 5.68553L842.345 7.97103C847.729 9.97062 852.664 13.0146 856.867 16.9278C862.204 21.8965 866.208 28.1247 868.514 35.0421L869.059 36.6776C870.676 41.5275 871.5 46.6063 871.5 51.7185C871.5 59.4559 869.612 67.0765 866.001 73.9193L865.28 75.2848C863.103 79.4107 860.398 83.2359 857.233 86.664L853 91.25L849.483 95.0598C845.834 99.0135 841.871 102.666 837.634 105.982L832.5 110L821.5 117.5L813.75 122.5L806 127L656 207.5L691 181.5L176.5 432.5L515 562.5Z" stroke="black" stroke-width="4"/>
</g>
<circle cx="818" cy="54" r="42" fill="white" stroke="black" stroke-width="4"/>
<ellipse cx="828" cy="36" rx="15" ry="14" fill="black"/>
<circle cx="798.5" cy="52.5" r="10.5" fill="black"/>
<ellipse cx="831" cy="69.5" rx="7" ry="6.5" fill="black"/>
<defs>
<filter id="filter0_dd_56_2" x="0.0944519" y="0.680664" width="877.406" height="885.016" filterUnits="userSpaceOnUse" color-interpolation-filters="sRGB">
<feFlood flood-opacity="0" result="BackgroundImageFix"/>
<feColorMatrix in="SourceAlpha" type="matrix" values="0 0 0 0 0 0 0 0 0 0 0 0 0 0 0 0 0 0 127 0" result="hardAlpha"/>
<feOffset dy="4"/>
<feGaussianBlur stdDeviation="2"/>
<feComposite in2="hardAlpha" operator="out"/>
<feColorMatrix type="matrix" values="0 0 0 0 0 0 0 0 0 0 0 0 0 0 0 0 0 0 0.25 0"/>
<feBlend mode="normal" in2="BackgroundImageFix" result="effect1_dropShadow_56_2"/>
<feColorMatrix in="SourceAlpha" type="matrix" values="0 0 0 0 0 0 0 0 0 0 0 0 0 0 0 0 0 0 127 0" result="hardAlpha"/>
<feOffset dy="4"/>
<feGaussianBlur stdDeviation="2"/>
<feComposite in2="hardAlpha" operator="out"/>
<feColorMatrix type="matrix" values="0 0 0 0 0 0 0 0 0 0 0 0 0 0 0 0 0 0 0.25 0"/>
<feBlend mode="normal" in2="effect1_dropShadow_56_2" result="effect2_dropShadow_56_2"/>
<feBlend mode="normal" in="SourceGraphic" in2="effect2_dropShadow_56_2" result="shape"/>
</filter>
<linearGradient id="paint0_linear_56_2" x1="859.5" y1="21.5001" x2="20" y2="868" gradientUnits="userSpaceOnUse">
<stop stop-color="#8EDDFF"/>
<stop offset="1" stop-color="#123590"/>
</linearGradient>
</defs>
</svg>
